<svg width="158" height="15" viewBox="0 0 158 15" fill="none" xmlns="http://www.w3.org/2000/svg">
<path d="M-5.87549e-05 14.2891L0.242941 12.3451L0.242939 0.000662535L4.90854 0.000661719L4.90854 10.96L13.5107 10.96L14.9687 14.0218C14.9687 14.0866 14.75 14.1514 14.3126 14.2162C13.8752 14.2648 13.1219 14.2891 12.0527 14.2891L-5.87549e-05 14.2891ZM18.1348 14.2891L18.1348 0.000659406L33.7354 0.000656679L33.7354 3.30546L22.8733 3.30546L22.8733 5.32236L30.9166 5.32236L30.9166 8.70006L22.8733 8.70006L22.8733 10.96L33.3466 10.96L34.8046 14.0218C34.8046 14.0866 34.5859 14.1514 34.1485 14.2162C33.7111 14.2648 32.9578 14.2891 31.8886 14.2891L18.1348 14.2891ZM38.4528 14.2891L38.4528 0.000655854L54.0534 0.000653126L54.0534 3.30545L43.1913 3.30545L43.1913 5.32235L51.2346 5.32235L51.2346 8.70005L43.1913 8.70005L43.1913 10.96L53.6646 10.96L55.1226 14.0218C55.1226 14.0866 54.9039 14.1514 54.4665 14.2162C54.0291 14.2648 53.2758 14.2891 52.2066 14.2891L38.4528 14.2891ZM68.0711 14.2891C66.9695 14.2891 66.1595 14.2405 65.6411 14.1433C65.1227 14.0461 64.8635 13.9327 64.8635 13.8031L66.3215 10.6684C66.6941 10.7332 67.4636 10.798 68.63 10.8628C69.7964 10.9113 71.3111 10.9356 73.1741 10.9356L75.0938 10.9356C75.6608 10.9356 76.0415 10.8546 76.2359 10.6926C76.4303 10.5306 76.5275 10.2957 76.5275 9.98795L76.5275 9.74495C76.5275 9.35615 76.4303 9.08885 76.2359 8.94305C76.0415 8.79725 75.6608 8.72435 75.0938 8.72435L69.5291 8.72435C67.8929 8.72435 66.7022 8.42465 65.957 7.82525C65.2118 7.20965 64.8392 6.21335 64.8392 4.83635L64.8392 3.96155C64.8392 3.24875 64.9688 2.59265 65.228 1.99325C65.5034 1.39385 65.9651 0.91595 66.6131 0.559551C67.2611 0.186951 68.1521 0.000650661 69.2861 0.000650463L77.3537 0.000649052C78.3419 0.000648879 79.16 0.0573485 79.808 0.170748C80.4722 0.284148 80.8043 0.405648 80.8043 0.535247L80.0753 3.54845C79.6217 3.49985 78.7631 3.45125 77.4995 3.40265C76.2521 3.33785 74.6645 3.30545 72.7367 3.30545L70.9871 3.28115C70.4849 3.28115 70.1285 3.35405 69.9179 3.49985C69.7073 3.62945 69.5939 3.88055 69.5777 4.25315L69.5777 4.42325C69.5777 4.79585 69.6911 5.05505 69.9179 5.20085C70.1447 5.34665 70.5092 5.41955 71.0114 5.41955L76.3574 5.41955C77.3942 5.41955 78.2771 5.52485 79.0061 5.73545C79.7351 5.94605 80.294 6.33485 80.6828 6.90185C81.0716 7.45265 81.266 8.27075 81.266 9.35615L81.266 10.2309C81.266 11.4459 80.9501 12.426 80.3183 13.1712C79.7027 13.9164 78.6254 14.289 77.0864 14.289L68.0711 14.2891ZM90.4489 14.532C88.8289 14.532 87.5977 14.1513 86.7553 13.3899C85.9291 12.6285 85.516 11.3973 85.516 9.69635L85.516 0.000647625L90.2545 0.000646796L90.2545 9.25895C90.2545 10.0203 90.4408 10.5306 90.8134 10.7898C91.186 11.049 91.6477 11.1786 92.1985 11.1786L95.3332 11.1786C95.8516 11.1786 96.3052 11.049 96.694 10.7898C97.0828 10.5144 97.2772 10.0041 97.2772 9.25894L97.2772 0.000645569L101.943 0.000644753L101.943 9.69634C101.943 11.3973 101.53 12.6285 100.704 13.3899C99.8935 14.1513 98.6704 14.532 97.0342 14.532L90.4489 14.532ZM117.893 14.289C116.727 14.289 115.658 14.2647 114.686 14.2161C113.73 14.1513 112.96 14.046 112.377 13.9002C111.81 13.7544 111.527 13.5519 111.527 13.2927L113.228 10.401C113.697 10.6116 114.345 10.7574 115.172 10.8384C116.014 10.9032 117.124 10.9356 118.501 10.9356L119.303 10.9356C120.064 10.9356 120.566 10.7574 120.809 10.401C121.052 10.0284 121.174 9.63154 121.174 9.21034L121.174 1.94464L120.979 0.000641424L125.912 0.000640562L125.912 9.93934C125.912 10.7493 125.807 11.4864 125.596 12.1506C125.402 12.8148 124.989 13.3413 124.357 13.7301C123.741 14.1027 122.794 14.289 121.514 14.289L117.893 14.289ZM130.65 14.289L130.65 0.000639733L135.316 0.000638918L135.316 14.289L130.65 14.289ZM140.651 14.289L140.651 1.94464L140.408 0.000638027L144.88 0.000637245L151.732 6.95044L152.68 8.01964L152.947 8.01964L152.947 0.000635835L157.613 0.000635019L157.613 14.289L153.555 14.289L146.508 7.26634L145.56 6.12424L145.317 6.12424L145.317 14.289L140.651 14.289Z" fill="black"/>
</svg>
